<svg width="56" height="56" viewBox="0 0 56 56" fill="none" xmlns="http://www.w3.org/2000/svg">
<path d="M48 46V43.8498C48 43.2466 47.6459 42.7066 47.1108 42.4927C40.8322 39.9782 33.8623 36.856 33.2765 34.9109V32.8698C34.579 31.4887 35.6062 29.5633 36.2143 27.3084C37.675 26.2458 38.0382 24.0553 36.8291 22.5138V17.9451C36.8291 13.2291 34.2948 10 28.5008 10C22.8562 10 20.1693 13.2291 20.1693 17.9451V22.5149C18.9629 24.0542 19.3253 26.2436 20.7841 27.3073C21.3919 29.5633 22.42 31.4887 23.7233 32.8698V34.9098C23.1391 36.8538 16.1676 39.976 9.8892 42.4916C9.35414 42.7076 9 43.2466 9 43.8498V46" fill="#333333"/>
<path d="M48 46V43.8498C48 43.2466 47.6459 42.7066 47.1108 42.4927C40.8322 39.9782 33.8623 36.856 33.2765 34.9109V32.8698C34.579 31.4887 35.6062 29.5633 36.2143 27.3084C37.675 26.2458 38.0382 24.0553 36.8291 22.5138V17.9451C36.8291 13.2291 34.2948 10 28.5008 10C22.8562 10 20.1693 13.2291 20.1693 17.9451V22.5149C18.9629 24.0542 19.3253 26.2436 20.7841 27.3073C21.3919 29.5633 22.42 31.4887 23.7233 32.8698V34.9098C23.1391 36.8538 16.1676 39.976 9.8892 42.4916C9.35414 42.7076 9 43.2466 9 43.8498V46" stroke="#333333"/>
<path d="M44.0001 10V18" stroke="#333333" stroke-width="2" stroke-linecap="round" stroke-linejoin="round"/>
<path d="M40 14H48" stroke="#333333" stroke-width="2" stroke-linecap="round" stroke-linejoin="round"/>
</svg>
