<svg width="26" height="24" viewBox="0 0 26 24" fill="none" xmlns="http://www.w3.org/2000/svg">
<path d="M9.63683 16.7792L10.3835 16.6555C10.5282 16.6308 10.7008 16.5947 10.9003 16.5452C13.3667 15.949 15 14.1715 15 12.25C15 9.84813 12.4613 7.75 9.16667 7.75C5.872 7.75 3.33333 9.84813 3.33333 12.25C3.33333 13.6203 4.15233 14.9252 5.58617 15.7937L5.62817 15.8163L6.83333 16.4575V19.5659L9.63683 16.7792ZM10.7825 18.8717L6.50433 23.1243C6.34265 23.2851 6.13487 23.3957 5.90759 23.442C5.68032 23.4882 5.44389 23.468 5.22861 23.3839C5.01332 23.2998 4.82897 23.1556 4.69916 22.9699C4.56936 22.7841 4.50001 22.5652 4.5 22.3412V17.785C4.44788 17.7578 4.39653 17.7293 4.346 17.6995C2.31717 16.471 1 14.4876 1 12.25C1 8.52175 4.65633 5.5 9.16667 5.5C13.677 5.5 17.3333 8.52175 17.3333 12.25C17.3333 15.3168 14.8588 17.9065 11.4697 18.7277C11.2425 18.7839 11.0133 18.8319 10.7825 18.8717V18.8717ZM9.092 4.375C10.5037 2.35788 13.145 1 16.1667 1C20.677 1 24.3333 4.02175 24.3333 7.75C24.3333 9.98762 23.015 11.971 20.9873 13.1995C20.9368 13.2293 20.8855 13.2578 20.8333 13.285V17.8412C20.8333 18.0652 20.764 18.2841 20.6342 18.4699C20.5044 18.6556 20.32 18.7998 20.1047 18.8839C19.8894 18.968 19.653 18.9882 19.4257 18.942C19.1985 18.8957 18.9907 18.7851 18.829 18.6243L16.8048 16.6128L18.0217 14.59L18.5 15.0659V11.9575L19.7052 11.3163L19.7472 11.2937C21.1822 10.4252 22 9.12025 22 7.75C22 5.34813 19.4613 3.25 16.1667 3.25C14.6733 3.25 13.3363 3.68088 12.3202 4.375H9.092Z" fill="white"/>
</svg>
