<svg width="61" height="44" viewBox="0 0 61 44" fill="none" xmlns="http://www.w3.org/2000/svg">
<path d="M46.8965 39.875C45.7991 39.875 44.7466 39.4404 43.9706 38.6668C43.1946 37.8932 42.7586 36.844 42.7586 35.75C42.7586 34.656 43.1946 33.6068 43.9706 32.8332C44.7466 32.0596 45.7991 31.625 46.8965 31.625C47.994 31.625 49.0465 32.0596 49.8225 32.8332C50.5985 33.6068 51.0345 34.656 51.0345 35.75C51.0345 36.844 50.5985 37.8932 49.8225 38.6668C49.0465 39.4404 47.994 39.875 46.8965 39.875ZM51.0345 15.125L56.4414 22H44.1379V15.125H51.0345ZM13.7931 39.875C12.6957 39.875 11.6432 39.4404 10.8671 38.6668C10.0911 37.8932 9.65517 36.844 9.65517 35.75C9.65517 34.656 10.0911 33.6068 10.8671 32.8332C11.6432 32.0596 12.6957 31.625 13.7931 31.625C14.8905 31.625 15.943 32.0596 16.7191 32.8332C17.4951 33.6068 17.931 34.656 17.931 35.75C17.931 36.844 17.4951 37.8932 16.7191 38.6668C15.943 39.4404 14.8905 39.875 13.7931 39.875ZM52.4138 11H44.1379V0H5.51724C2.45517 0 0 2.4475 0 5.5V35.75H5.51724C5.51724 37.938 6.38916 40.0365 7.94118 41.5836C9.49321 43.1308 11.5982 44 13.7931 44C15.988 44 18.093 43.1308 19.645 41.5836C21.197 40.0365 22.069 37.938 22.069 35.75H38.6207C38.6207 37.938 39.4926 40.0365 41.0446 41.5836C42.5967 43.1308 44.7016 44 46.8965 44C49.0914 44 51.1964 43.1308 52.7485 41.5836C54.3005 40.0365 55.1724 37.938 55.1724 35.75H60.6896V22L52.4138 11Z" fill="white"/>
</svg>
