<svg width="56" height="56" viewBox="0 0 56 56" fill="none" xmlns="http://www.w3.org/2000/svg">
<path d="M48 46V43.8498C48 43.2466 47.6459 42.7066 47.1108 42.4927C40.8322 39.9782 33.8623 36.856 33.2765 34.9109V32.8698C34.579 31.4887 35.6062 29.5633 36.2143 27.3084C37.675 26.2458 38.0382 24.0553 36.8291 22.5138V17.9451C36.8291 13.2291 34.2948 10 28.5008 10C22.8562 10 20.1693 13.2291 20.1693 17.9451V22.5149C18.9629 24.0542 19.3253 26.2436 20.7841 27.3073C21.3919 29.5633 22.42 31.4887 23.7233 32.8698V34.9098C23.1391 36.8538 16.1676 39.976 9.8892 42.4916C9.35414 42.7076 9 43.2466 9 43.8498V46" fill="#4F4F4F"/>
<path d="M48 46V43.8498C48 43.2466 47.6459 42.7066 47.1108 42.4927C40.8322 39.9782 33.8623 36.856 33.2765 34.9109V32.8698C34.579 31.4887 35.6062 29.5633 36.2143 27.3084C37.675 26.2458 38.0382 24.0553 36.8291 22.5138V17.9451C36.8291 13.2291 34.2948 10 28.5008 10C22.8562 10 20.1693 13.2291 20.1693 17.9451V22.5149C18.9629 24.0542 19.3253 26.2436 20.7841 27.3073C21.3919 29.5633 22.42 31.4887 23.7233 32.8698V34.9098C23.1391 36.8538 16.1676 39.976 9.8892 42.4916C9.35414 42.7076 9 43.2466 9 43.8498V46" stroke="#4F4F4F"/>
<path d="M45.8702 11.1331L46.8669 12.1294L45.8702 11.1331ZM46.5111 10.2555L43.816 12.9505C43.6768 13.0896 43.5818 13.2668 43.5431 13.4597L43.2941 14.7058L44.5403 14.4564C44.7332 14.4178 44.9101 14.3233 45.0494 14.184L47.7445 11.4889C47.8255 11.4079 47.8898 11.3117 47.9336 11.2059C47.9774 11.1001 48 10.9867 48 10.8722C48 10.7576 47.9774 10.6442 47.9336 10.5384C47.8898 10.4326 47.8255 10.3364 47.7445 10.2555C47.6635 10.1745 47.5674 10.1102 47.4616 10.0664C47.3558 10.0226 47.2423 10 47.1278 10C47.0133 10 46.8999 10.0226 46.7941 10.0664C46.6882 10.1102 46.5921 10.1745 46.5111 10.2555V10.2555Z" stroke="#4F4F4F" stroke-linecap="round" stroke-linejoin="round"/>
<path d="M47.0589 15.647V17.0588C47.0589 17.3084 46.9597 17.5478 46.7832 17.7243C46.6067 17.9008 46.3673 18 46.1177 18H40.9412C40.6916 18 40.4522 17.9008 40.2757 17.7243C40.0992 17.5478 40 17.3084 40 17.0588V11.8823C40 11.6327 40.0992 11.3933 40.2757 11.2168C40.4522 11.0403 40.6916 10.9411 40.9412 10.9411H42.353" stroke="#4F4F4F" stroke-linecap="round" stroke-linejoin="round"/>
</svg>
