<svg width="45" height="44" viewBox="0 0 45 44" fill="none" xmlns="http://www.w3.org/2000/svg">
<path d="M22 27.4546C25.0125 27.4546 27.4546 25.0125 27.4546 22C27.4546 18.9876 25.0125 16.5455 22 16.5455C18.9876 16.5455 16.5455 18.9876 16.5455 22C16.5455 25.0125 18.9876 27.4546 22 27.4546Z" stroke="#30302F" stroke-width="2" stroke-linecap="round" stroke-linejoin="round"/>
<path d="M35.4545 27.4545C35.2125 28.0029 35.1403 28.6113 35.2473 29.2011C35.3542 29.7909 35.6354 30.3351 36.0545 30.7636L36.1636 30.8727C36.5017 31.2104 36.7699 31.6115 36.9529 32.0529C37.1359 32.4944 37.2301 32.9676 37.2301 33.4455C37.2301 33.9233 37.1359 34.3965 36.9529 34.838C36.7699 35.2794 36.5017 35.6805 36.1636 36.0182C35.8259 36.3563 35.4249 36.6245 34.9834 36.8075C34.542 36.9905 34.0688 37.0847 33.5909 37.0847C33.113 37.0847 32.6398 36.9905 32.1984 36.8075C31.757 36.6245 31.3559 36.3563 31.0182 36.0182L30.9091 35.9091C30.4806 35.4899 29.9363 35.2088 29.3465 35.1018C28.7567 34.9949 28.1484 35.0671 27.6 35.3091C27.0622 35.5396 26.6036 35.9223 26.2806 36.4101C25.9575 36.8979 25.7842 37.4695 25.7818 38.0545V38.3636C25.7818 39.3281 25.3987 40.253 24.7168 40.9349C24.0348 41.6169 23.1099 42 22.1455 42C21.181 42 20.2561 41.6169 19.5742 40.9349C18.8922 40.253 18.5091 39.3281 18.5091 38.3636V38.2C18.495 37.5982 18.3002 37.0145 17.95 36.5249C17.5998 36.0353 17.1104 35.6623 16.5455 35.4545C15.9971 35.2125 15.3887 35.1403 14.7989 35.2473C14.2091 35.3542 13.6649 35.6354 13.2364 36.0545L13.1273 36.1636C12.7896 36.5017 12.3885 36.7699 11.9471 36.9529C11.5056 37.1359 11.0324 37.2301 10.5545 37.2301C10.0767 37.2301 9.60348 37.1359 9.16204 36.9529C8.72059 36.7699 8.31954 36.5017 7.98182 36.1636C7.64372 35.8259 7.37551 35.4249 7.19251 34.9834C7.00951 34.542 6.91532 34.0688 6.91532 33.5909C6.91532 33.113 7.00951 32.6398 7.19251 32.1984C7.37551 31.757 7.64372 31.3559 7.98182 31.0182L8.09091 30.9091C8.51007 30.4806 8.79125 29.9363 8.89819 29.3465C9.00513 28.7567 8.93294 28.1484 8.69091 27.6C8.46043 27.0622 8.07774 26.6036 7.58994 26.2806C7.10214 25.9575 6.53052 25.7842 5.94545 25.7818H5.63636C4.67194 25.7818 3.74702 25.3987 3.06507 24.7168C2.38312 24.0348 2 23.1099 2 22.1455C2 21.181 2.38312 20.2561 3.06507 19.5742C3.74702 18.8922 4.67194 18.5091 5.63636 18.5091H5.8C6.40181 18.495 6.98546 18.3002 7.47509 17.95C7.96472 17.5998 8.33766 17.1104 8.54545 16.5455C8.78748 15.9971 8.85968 15.3887 8.75274 14.7989C8.64579 14.2091 8.36461 13.6649 7.94545 13.2364L7.83636 13.1273C7.49827 12.7896 7.23005 12.3885 7.04706 11.9471C6.86406 11.5056 6.76987 11.0324 6.76987 10.5545C6.76987 10.0767 6.86406 9.60348 7.04706 9.16204C7.23005 8.72059 7.49827 8.31954 7.83636 7.98182C8.17408 7.64372 8.57513 7.37551 9.01658 7.19251C9.45803 7.00951 9.93122 6.91532 10.4091 6.91532C10.887 6.91532 11.3602 7.00951 11.8016 7.19251C12.243 7.37551 12.6441 7.64372 12.9818 7.98182L13.0909 8.09091C13.5194 8.51007 14.0637 8.79125 14.6535 8.89819C15.2433 9.00513 15.8516 8.93294 16.4 8.69091H16.5455C17.0832 8.46043 17.5418 8.07774 17.8649 7.58994C18.1879 7.10214 18.3613 6.53052 18.3636 5.94545V5.63636C18.3636 4.67194 18.7468 3.74702 19.4287 3.06507C20.1107 2.38312 21.0356 2 22 2C22.9644 2 23.8893 2.38312 24.5713 3.06507C25.2532 3.74702 25.6364 4.67194 25.6364 5.63636V5.8C25.6387 6.38507 25.8121 6.95668 26.1351 7.44448C26.4582 7.93228 26.9168 8.31498 27.4545 8.54545C28.0029 8.78748 28.6113 8.85968 29.2011 8.75274C29.7909 8.64579 30.3351 8.36461 30.7636 7.94545L30.8727 7.83636C31.2104 7.49827 31.6115 7.23005 32.0529 7.04706C32.4944 6.86406 32.9676 6.76987 33.4455 6.76987C33.9233 6.76987 34.3965 6.86406 34.838 7.04706C35.2794 7.23005 35.6805 7.49827 36.0182 7.83636C36.3563 8.17408 36.6245 8.57513 36.8075 9.01658C36.9905 9.45803 37.0847 9.93122 37.0847 10.4091C37.0847 10.887 36.9905 11.3602 36.8075 11.8016C36.6245 12.243 36.3563 12.6441 36.0182 12.9818L35.9091 13.0909C35.4899 13.5194 35.2088 14.0637 35.1018 14.6535C34.9949 15.2433 35.0671 15.8516 35.3091 16.4V16.5455C35.5396 17.0832 35.9223 17.5418 36.4101 17.8649C36.8979 18.1879 37.4695 18.3613 38.0545 18.3636H38.3636C39.3281 18.3636 40.253 18.7468 40.9349 19.4287C41.6169 20.1107 42 21.0356 42 22C42 22.9644 41.6169 23.8893 40.9349 24.5713C40.253 25.2532 39.3281 25.6364 38.3636 25.6364H38.2C37.6149 25.6387 37.0433 25.8121 36.5555 26.1351C36.0677 26.4582 35.685 26.9168 35.4545 27.4545V27.4545Z" stroke="#30302F" stroke-width="2" stroke-linecap="round" stroke-linejoin="round"/>
</svg>
