<svg width="26" height="24" viewBox="0 0 26 24" fill="none" xmlns="http://www.w3.org/2000/svg">
<g clip-path="url(#clip0_111_3138)">
<path d="M26.1818 24V22.5665C26.1818 22.1644 25.9441 21.8044 25.5849 21.6618C21.3699 19.9855 16.6908 17.904 16.2975 16.6073V15.2465C17.1719 14.3258 17.8615 13.0422 18.2697 11.5389C19.2503 10.8305 19.4942 9.37018 18.6825 8.34254V5.29673C18.6825 2.15273 16.9811 0 13.0914 0C9.30204 0 7.49825 2.15273 7.49825 5.29673V8.34327C6.68836 9.36945 6.93164 10.8291 7.91098 11.5382C8.31905 13.0422 9.00923 14.3258 9.88414 15.2465V16.6065C9.492 17.9025 4.81178 19.984 0.596946 21.6611C0.237746 21.8051 0 22.1644 0 22.5665V24" fill="white"/>
<path d="M26.1818 24V22.5665C26.1818 22.1644 25.9441 21.8044 25.5849 21.6618C21.3699 19.9855 16.6908 17.904 16.2975 16.6073V15.2465C17.1719 14.3258 17.8615 13.0422 18.2697 11.5389C19.2503 10.8305 19.4942 9.37018 18.6825 8.34254V5.29673C18.6825 2.15273 16.9811 0 13.0914 0C9.30204 0 7.49825 2.15273 7.49825 5.29673V8.34327C6.68836 9.36945 6.93164 10.8291 7.91098 11.5382C8.31905 13.0422 9.00923 14.3258 9.88414 15.2465V16.6065C9.492 17.9025 4.81178 19.984 0.596946 21.6611C0.237746 21.8051 0 22.1644 0 22.5665V24" stroke="white"/>
</g>
<defs>
<clipPath id="clip0_111_3138">
<rect width="26" height="24" fill="white"/>
</clipPath>
</defs>
</svg>
